HIERARCHY
ROOT Hips
{
	OFFSET 0.00000 0.00000 0.00000
	CHANNELS 6 Xposition Yposition Zposition Yrotation Zrotation Xrotation 
	JOINT Lumbar
	{
		OFFSET 0 0 0
		CHANNELS 3 Zrotation Xrotation Yrotation
		JOINT Neck
		{
			OFFSET 0.00 0.2701 0.00
			CHANNELS 3 Zrotation Xrotation Yrotation
			End Site
			{
				OFFSET 0.00 0.1379 0.00
			}
		}
		JOINT RightShoulder
		{
			OFFSET 0.0119 0.2289 0.1181
			CHANNELS 3 Zrotation Xrotation Yrotation
			JOINT RightElbow
			{
				OFFSET 0.00 -0.1475 0.00
				CHANNELS 2 Zrotation Yrotation
				JOINT RightWrist
				{
					OFFSET 0.00 -0.1605 0.00
					CHANNELS 2 Zrotation Xrotation
					End Site
					{
						OFFSET 0.0040 -0.1068 0.0006
					}
				}
			}
		}
		JOINT LeftShoulder
		{
			OFFSET 0.0119 0.2289 -0.1181
			CHANNELS 3 Zrotation Xrotation Yrotation
			JOINT LeftElbow
			{
				OFFSET 0.00 -0.1475 0.00
				CHANNELS 2 Zrotation Yrotation
				JOINT LeftWrist
				{
					OFFSET 0.00 -0.1605 0.00
					CHANNELS 2 Zrotation Xrotation
					End Site
					{
						OFFSET 0.0040 -0.1068 -0.0006
					}
				}
			}
		}
	}
	JOINT RightHip
	{
		OFFSET 0.0316 -0.0424 0.0458
		CHANNELS 3 Zrotation Xrotation Yrotation
		JOINT RightKnee
		{
			OFFSET 0.00 -0.2438 0.00
			CHANNELS 1 Zrotation
			JOINT RightAnkle
			{
				OFFSET 0.00 -0.2449 0.00
				CHANNELS 3 Zrotation Xrotation Yrotation
				End Site
				{
					OFFSET 0.1237 -0.0542 0.0051
				}
			}
		}
	}
	JOINT LeftHip
	{
		OFFSET 0.0316 -0.0424 -0.0458
		CHANNELS 3 Zrotation Xrotation Yrotation
		JOINT LeftKnee
		{
			OFFSET 0.00 -0.2438 0.00
			CHANNELS 1 Zrotation
			JOINT LeftAnkle
			{
				OFFSET 0.00 -0.2449 0.00
				CHANNELS 3 Zrotation Xrotation Yrotation
				End Site
				{
					OFFSET 0.1237 -0.0542 -0.0051
				}
			}
		}
	}
}
MOTION
Frames: 25
Frame Time: 0.02
-0.00017 0.00011 -0.00021 176.06855 -43.36625 0.59335 57.02057 1.19023 2.11814 -10.72316 -0.67393 -1.24738 157.44195 -74.55909 -48.37665 12.92995 72.05486 -2.26513 -13.29617 161.16646 73.01763 74.18656 8.88876 -50.50041 9.7866 11.66085 46.74385 -3.60078 -14.47432 -19.55244 -7.1762 -3.17186 -3.82779 50.27088 0.61242 -0.30121 -24.617 -8.65945 4.55885 4.54499
0.00015 0.00013 7e-05 175.98804 -43.47447 0.56781 56.98915 1.19562 2.16804 -10.69706 -0.71236 -1.24761 157.44391 -74.54916 -48.46515 12.95427 72.05658 -2.23031 -13.30175 161.33462 73.05299 74.07608 8.8948 -50.52998 9.79273 11.66339 46.90828 -3.58031 -14.28201 -19.54198 -7.19665 -3.19038 -3.83544 50.34048 0.93757 1.28098 -24.60674 -8.53395 4.42153 4.47293
0.00047 0.00016 0.00035 175.90775 -43.58242 0.54235 56.95775 1.20097 2.21782 -10.67103 -0.75076 -1.24784 157.44577 -74.53925 -48.55355 12.97851 72.05828 -2.19558 -13.30733 161.50217 73.08824 73.96621 8.90079 -50.55946 9.79886 11.66589 47.07228 -3.55992 -14.09011 -19.5315 -7.21704 -3.20884 -3.84306 50.40997 1.26165 2.85812 -24.59655 -8.40886 4.28464 4.40111
0.00079 0.00018 0.00062 175.82747 -43.69031 0.51688 56.92642 1.20634 2.26757 -10.645 -0.78909 -1.24808 157.44771 -74.52935 -48.64181 13.00275 72.06 -2.16087 -13.3129 161.66981 73.12349 73.8561 8.90681 -50.58894 9.80497 11.66842 47.23621 -3.53951 -13.89836 -19.52106 -7.23742 -3.2273 -3.85069 50.47937 1.58579 4.43541 -24.58633 -8.28375 4.14774 4.32928
0.00111 0.00021 0.0009 175.74701 -43.79846 0.49136 56.89508 1.21175 2.31744 -10.61889 -0.82742 -1.24831 157.44979 -74.51942 -48.7301 13.02708 72.06174 -2.12605 -13.31847 161.83807 73.15887 73.74533 8.91289 -50.6185 9.81107 11.67101 47.40056 -3.51902 -13.70628 -19.51067 -7.25785 -3.2458 -3.85833 50.54882 1.91105 6.0178 -24.57605 -8.15824 4.01039 4.25721
0.00143 0.00023 0.00118 175.66708 -43.90598 0.46602 56.86357 1.21696 2.36701 -10.59305 -0.86596 -1.24855 157.4512 -74.50956 -48.81872 13.05113 72.06337 -2.09153 -13.32405 162.00412 73.19386 73.6374 8.9187 -50.64779 9.81725 11.67331 47.5638 -3.49883 -13.5148 -19.50001 -7.27817 -3.26417 -3.86592 50.6184 2.23262 7.58382 -24.56603 -8.03402 3.87448 4.18591
0.00175 0.00026 0.00145 175.58614 -44.01463 0.44032 56.83243 1.22257 2.41712 -10.5667 -0.90404 -1.24877 157.45394 -74.49957 -48.90659 13.07571 72.06522 -2.05645 -13.32961 162.17449 73.22957 73.52375 8.92505 -50.67762 9.82327 11.6762 47.72908 -3.47804 -13.3223 -19.4899 -7.29868 -3.2828 -3.8736 50.68765 2.56125 9.18097 -24.55549 -7.90735 3.73583 4.11314
0.00207 0.00028 0.00173 175.50616 -44.12226 0.41496 56.80096 1.22783 2.46673 -10.54081 -0.94255 -1.24901 157.45548 -74.48971 -48.99516 13.0998 72.06685 -2.02189 -13.33518 162.34077 73.26466 73.4156 8.93089 -50.70693 9.82943 11.67853 47.89249 -3.45785 -13.13079 -19.47929 -7.31902 -3.30118 -3.8812 50.75721 2.88337 10.74958 -24.54544 -7.78293 3.59969 4.04172
0.00239 0.0003 0.00201 175.42723 -44.22863 0.38998 56.76904 1.23261 2.51576 -10.51549 -0.98157 -1.24926 157.45541 -74.47997 -49.08462 13.12332 72.06827 -1.98792 -13.34082 162.50249 73.29881 73.31329 8.93617 -50.7357 9.83582 11.68024 48.05365 -3.43821 -12.94017 -19.468 -7.33916 -3.31927 -3.88872 50.82718 3.19763 12.28325 -24.53594 -7.66124 3.46663 3.97194
0.00272 0.00033 0.00228 175.34185 -44.3422 0.36274 56.73956 1.23996 2.56825 -10.48693 -1.01762 -1.24944 157.4642 -74.46944 -49.16906 13.15021 72.07109 -1.95045 -13.34624 162.69177 73.33781 73.17473 8.94483 -50.76785 9.84104 11.68571 48.22785 -3.41485 -12.74345 -19.46043 -7.36046 -3.33909 -3.89672 50.89487 3.55744 14.01786 -24.52315 -7.5238 3.31588 3.89273
0.00302 0.00035 0.00257 175.27037 -44.4406 0.34029 56.70505 1.242 2.61332 -10.46519 -1.05994 -1.24976 157.45456 -74.46064 -49.26399 13.16994 72.07086 -1.9204 -13.35199 162.82208 73.36693 73.1143 8.94626 -50.79269 9.84862 11.68311 48.37448 -3.3997 -12.56025 -19.44513 -7.3793 -3.35524 -3.9037 50.96733 3.82092 15.32845 -24.51736 -7.41959 3.20245 3.8334
0.00322 0.00037 0.00291 175.23503 -44.49677 0.33095 56.65547 1.22836 2.63903 -10.46256 -1.11968 -1.25042 157.39158 -74.45593 -49.38908 13.17031 72.06284 -1.91084 -13.35977 162.79589 73.36599 73.25648 8.92857 -50.79878 9.86379 11.6593 48.44529 -3.40459 -12.4093 -19.40747 -7.39133 -3.3613 -3.90799 51.05325 3.81923 15.46489 -24.53055 -7.40755 3.19229 3.82926
0.00339 0.00038 0.00327 175.21402 -44.53781 0.32643 56.60105 1.20957 2.6571 -10.46671 -1.18566 -1.2512 157.31051 -74.45308 -49.52457 13.1635 72.05167 -1.90876 -13.36771 162.70958 73.35567 73.47896 8.90352 -50.79734 9.88115 11.62726 48.48842 -3.41828 -12.27296 -19.36229 -7.40089 -3.36367 -3.91123 51.14384 3.7209 15.17743 -24.5508 -7.42871 3.21943 3.84498
0.00356 0.00039 0.00363 175.18779 -44.58617 0.31972 56.54972 1.19384 2.67801 -10.46754 -1.24869 -1.25193 157.23964 -74.4498 -49.65425 13.15976 72.04154 -1.90316 -13.37477 162.64722 73.35162 73.67279 8.88129 -50.79841 9.89677 11.59831 48.54432 -3.4295 -12.13293 -19.32126 -7.41161 -3.36776 -3.91489 51.23211 3.66744 15.091 -24.56801 -7.43404 3.22895 3.85121
0.00377 0.00041 0.00395 175.15621 -44.63264 0.31301 56.49474 1.17508 2.70157 -10.46947 -1.31231 -1.25267 157.16076 -74.44474 -49.78802 13.15661 72.03299 -1.89794 -13.38505 162.59863 73.33916 73.83504 8.86111 -50.80308 9.91547 11.57187 48.59943 -3.43399 -11.97993 -19.27701 -7.42218 -3.37175 -3.91883 51.32143 3.61006 14.96869 -24.58461 -7.44256 3.24138 3.85942
0.00391 0.00042 0.00436 175.13909 -44.67941 0.30744 56.4461 1.16141 2.71782 -10.47063 -1.37606 -1.25342 157.09381 -74.44385 -49.91636 13.15077 72.02051 -1.89388 -13.38888 162.50752 73.3419 74.08041 8.83512 -50.79874 9.92836 11.53852 48.64954 -3.45493 -11.85812 -19.23784 -7.43244 -3.37498 -3.92189 51.40941 3.53758 14.82015 -24.60405 -7.4523 3.25658 3.86823
0.00389 0.00042 0.00499 175.15891 -44.73137 0.30387 56.41706 1.16295 2.7154 -10.46859 -1.43964 -1.25414 157.06837 -74.45403 -50.02136 13.13722 71.99706 -1.88965 -13.37304 162.31037 73.38978 74.55022 8.79305 -50.76912 9.92381 11.48581 48.69359 -3.51616 -11.81188 -19.2134 -7.44305 -3.37781 -3.92315 51.4948 3.45047 14.70892 -24.63054 -7.45734 3.27007 3.87362
0.00382 0.00042 0.00572 175.19275 -44.78404 0.30125 56.39442 1.16979 2.70591 -10.46545 -1.50293 -1.25487 157.05493 -74.4684 -50.12132 13.12154 71.96996 -1.88659 -13.351 162.07317 73.45308 75.09831 8.74569 -50.73115 9.91346 11.42684 48.73343 -3.59412 -11.79716 -19.19461 -7.45339 -3.37993 -3.92353 51.57824 3.35093 14.58522 -24.65947 -7.46241 3.28503 3.87895
0.00377 0.00042 0.00641 175.21974 -44.83595 0.29819 56.36824 1.17427 2.69994 -10.46243 -1.56574 -1.2556 157.03307 -74.4808 -50.22775 13.10821 71.9451 -1.88404 -13.33305 161.85647 73.50881 75.60084 8.70203 -50.69844 9.90638 11.37229 48.77456 -3.66649 -11.77346 -19.17395 -7.46342 -3.3818 -3.92404 51.66114 3.25483 14.46304 -24.68666 -7.46748 3.29949 3.88448
0.00374 0.00042 0.00706 175.24896 -44.88913 0.29542 56.3445 1.17838 2.69258 -10.46123 -1.63146 -1.25634 157.02249 -74.49333 -50.31811 13.089 71.91757 -1.87745 -13.30989 161.62786 73.56679 76.14782 8.65284 -50.65913 9.89687 11.31091 48.81721 -3.73101 -11.73048 -19.14989 -7.47497 -3.38567 -3.92551 51.75034 3.16454 14.34233 -24.71673 -7.47379 3.31468 3.89003
0.00364 0.00041 0.00783 175.27701 -44.9401 0.29212 56.31732 1.18457 2.68633 -10.45593 -1.69081 -1.25705 156.99226 -74.50683 -50.43909 13.08136 71.89491 -1.87931 -13.29589 161.41545 73.62363 76.62038 8.61379 -50.63189 9.89079 11.26225 48.85621 -3.8153 -11.73148 -19.13457 -7.4836 -3.38561 -3.92497 51.82574 3.06064 14.22264 -24.74131 -7.47691 3.32803 3.89518
0.0034 0.00038 0.0089 175.2958 -44.98421 0.28797 56.27848 1.19537 2.6866 -10.43911 -1.73402 -1.25766 156.89837 -74.51988 -50.65877 13.10847 71.88536 -1.90563 -13.31037 161.25646 73.67578 76.86376 8.6059 -50.63819 9.89746 11.25125 48.88515 -3.95391 -11.87677 -19.14071 -7.48173 -3.37171 -3.91738 51.8645 2.92115 14.09798 -24.74993 -7.47275 3.33746 3.9
0.0031 0.00034 0.0101 175.31348 -45.02616 0.2831 56.23601 1.20802 2.68785 -10.4183 -1.7705 -1.25826 156.78547 -74.53427 -50.90702 13.14684 71.88105 -1.94017 -13.3338 161.11531 73.72597 77.03077 8.60801 -50.65731 9.90739 11.25294 48.91092 -4.1112 -12.06 -19.15612 -7.47737 -3.35443 -3.9081 51.88909 2.76905 13.97885 -24.75296 -7.46494 3.34453 3.90418
0.00282 0.00031 0.01125 175.33312 -45.0697 0.27799 56.19575 1.2198 2.6877 -10.39948 -1.80917 -1.25884 156.68577 -74.54924 -51.13358 13.17868 71.87516 -1.96996 -13.35221 160.9675 73.7755 77.23434 8.60447 -50.67175 9.91463 11.24846 48.9389 -4.25722 -12.20503 -19.16772 -7.47584 -3.34079 -3.90074 51.91964 2.62395 13.8666 -24.75856 -7.4576 3.35146 3.90806
0.00256 0.00028 0.01235 175.34656 -45.11109 0.27526 56.15374 1.23213 2.69177 -10.37963 -1.85162 -1.25943 156.56777 -74.55878 -51.39651 13.2167 71.86582 -2.0039 -13.37508 160.81364 73.83173 77.4297 8.60575 -50.68098 9.92688 11.24628 48.96336 -4.41502 -12.43739 -19.17626 -7.46727 -3.31837 -3.88859 51.95267 2.47313 13.7144 -24.76394 -7.45525 3.3635 3.91446
